<mxfile host="app.diagrams.net" agent="Mozilla/5.0 (Windows NT 10.0; Win64; x64) AppleWebKit/537.36 (KHTML, like Gecko) Chrome/137.0.0.0 Safari/537.36" version="27.1.6">
  <diagram name="database" id="ThlYZ_avILh4HYBnMpqR">
    <mxGraphModel dx="1251" dy="733" grid="1" gridSize="10" guides="1" tooltips="1" connect="1" arrows="1" fold="1" page="1" pageScale="1" pageWidth="827" pageHeight="1169" math="0" shadow="0">
      <root>
        <mxCell id="0" />
        <mxCell id="1" parent="0" />
        <mxCell id="Qd-LAS_3Zy4IJIIum8C7-68" style="edgeStyle=orthogonalEdgeStyle;rounded=0;orthogonalLoop=1;jettySize=auto;html=1;endArrow=none;startFill=0;startArrow=ERmany;" edge="1" parent="1" source="Qd-LAS_3Zy4IJIIum8C7-72" target="Qd-LAS_3Zy4IJIIum8C7-31">
          <mxGeometry relative="1" as="geometry">
            <Array as="points">
              <mxPoint x="250" y="142" />
              <mxPoint x="250" y="142" />
            </Array>
          </mxGeometry>
        </mxCell>
        <mxCell id="Qd-LAS_3Zy4IJIIum8C7-82" style="edgeStyle=orthogonalEdgeStyle;rounded=0;orthogonalLoop=1;jettySize=auto;html=1;endArrow=ERmany;endFill=0;" edge="1" parent="1" source="Qd-LAS_3Zy4IJIIum8C7-6" target="Qd-LAS_3Zy4IJIIum8C7-72">
          <mxGeometry relative="1" as="geometry">
            <Array as="points">
              <mxPoint x="550" y="140" />
              <mxPoint x="550" y="140" />
            </Array>
          </mxGeometry>
        </mxCell>
        <mxCell id="Qd-LAS_3Zy4IJIIum8C7-6" value="&lt;div&gt;&amp;lt;&amp;lt;Entity&amp;gt;&amp;gt;&lt;/div&gt;Sheets" style="swimlane;fontStyle=1;align=center;verticalAlign=top;childLayout=stackLayout;horizontal=1;startSize=40;horizontalStack=0;resizeParent=1;resizeParentMax=0;resizeLast=0;collapsible=1;marginBottom=0;whiteSpace=wrap;html=1;" vertex="1" parent="1">
          <mxGeometry x="619.9976470588234" y="40" width="185" height="256" as="geometry" />
        </mxCell>
        <mxCell id="Qd-LAS_3Zy4IJIIum8C7-7" value="+ SheetID: int PK" style="text;strokeColor=none;fillColor=none;align=left;verticalAlign=top;spacingLeft=4;spacingRight=4;overflow=hidden;rotatable=0;points=[[0,0.5],[1,0.5]];portConstraint=eastwest;whiteSpace=wrap;html=1;" vertex="1" parent="Qd-LAS_3Zy4IJIIum8C7-6">
          <mxGeometry y="40" width="185" height="26" as="geometry" />
        </mxCell>
        <mxCell id="Qd-LAS_3Zy4IJIIum8C7-8" value="" style="line;strokeWidth=1;fillColor=none;align=left;verticalAlign=middle;spacingTop=-1;spacingLeft=3;spacingRight=3;rotatable=0;labelPosition=right;points=[];portConstraint=eastwest;strokeColor=inherit;" vertex="1" parent="Qd-LAS_3Zy4IJIIum8C7-6">
          <mxGeometry y="66" width="185" height="8" as="geometry" />
        </mxCell>
        <mxCell id="Qd-LAS_3Zy4IJIIum8C7-9" value="+ CourseCode: string" style="text;align=left;verticalAlign=top;spacingLeft=4;spacingRight=4;overflow=hidden;rotatable=0;points=[[0,0.5],[1,0.5]];portConstraint=eastwest;whiteSpace=wrap;html=1;" vertex="1" parent="Qd-LAS_3Zy4IJIIum8C7-6">
          <mxGeometry y="74" width="185" height="26" as="geometry" />
        </mxCell>
        <mxCell id="Qd-LAS_3Zy4IJIIum8C7-63" value="+ SheetName: string" style="text;align=left;verticalAlign=top;spacingLeft=4;spacingRight=4;overflow=hidden;rotatable=0;points=[[0,0.5],[1,0.5]];portConstraint=eastwest;whiteSpace=wrap;html=1;" vertex="1" parent="Qd-LAS_3Zy4IJIIum8C7-6">
          <mxGeometry y="100" width="185" height="26" as="geometry" />
        </mxCell>
        <mxCell id="Qd-LAS_3Zy4IJIIum8C7-64" value="+ SheetTerm: int" style="text;align=left;verticalAlign=top;spacingLeft=4;spacingRight=4;overflow=hidden;rotatable=0;points=[[0,0.5],[1,0.5]];portConstraint=eastwest;whiteSpace=wrap;html=1;" vertex="1" parent="Qd-LAS_3Zy4IJIIum8C7-6">
          <mxGeometry y="126" width="185" height="26" as="geometry" />
        </mxCell>
        <mxCell id="Qd-LAS_3Zy4IJIIum8C7-65" value="+ SheetYear: int" style="text;align=left;verticalAlign=top;spacingLeft=4;spacingRight=4;overflow=hidden;rotatable=0;points=[[0,0.5],[1,0.5]];portConstraint=eastwest;whiteSpace=wrap;html=1;" vertex="1" parent="Qd-LAS_3Zy4IJIIum8C7-6">
          <mxGeometry y="152" width="185" height="26" as="geometry" />
        </mxCell>
        <mxCell id="Qd-LAS_3Zy4IJIIum8C7-66" value="+ SheetPrice: int" style="text;align=left;verticalAlign=top;spacingLeft=4;spacingRight=4;overflow=hidden;rotatable=0;points=[[0,0.5],[1,0.5]];portConstraint=eastwest;whiteSpace=wrap;html=1;" vertex="1" parent="Qd-LAS_3Zy4IJIIum8C7-6">
          <mxGeometry y="178" width="185" height="26" as="geometry" />
        </mxCell>
        <mxCell id="Qd-LAS_3Zy4IJIIum8C7-67" value="+ SheetSold: int" style="text;align=left;verticalAlign=top;spacingLeft=4;spacingRight=4;overflow=hidden;rotatable=0;points=[[0,0.5],[1,0.5]];portConstraint=eastwest;whiteSpace=wrap;html=1;" vertex="1" parent="Qd-LAS_3Zy4IJIIum8C7-6">
          <mxGeometry y="204" width="185" height="26" as="geometry" />
        </mxCell>
        <mxCell id="Qd-LAS_3Zy4IJIIum8C7-84" value="+ UserID: int FK" style="text;align=left;verticalAlign=top;spacingLeft=4;spacingRight=4;overflow=hidden;rotatable=0;points=[[0,0.5],[1,0.5]];portConstraint=eastwest;whiteSpace=wrap;html=1;fillColor=#f8cecc;strokeColor=#b85450;" vertex="1" parent="Qd-LAS_3Zy4IJIIum8C7-6">
          <mxGeometry y="230" width="185" height="26" as="geometry" />
        </mxCell>
        <mxCell id="Qd-LAS_3Zy4IJIIum8C7-83" style="edgeStyle=orthogonalEdgeStyle;rounded=0;orthogonalLoop=1;jettySize=auto;html=1;endArrow=ERmany;endFill=0;" edge="1" parent="1" source="Qd-LAS_3Zy4IJIIum8C7-31" target="Qd-LAS_3Zy4IJIIum8C7-6">
          <mxGeometry relative="1" as="geometry">
            <Array as="points">
              <mxPoint x="120" y="340" />
              <mxPoint x="713" y="340" />
            </Array>
          </mxGeometry>
        </mxCell>
        <mxCell id="Qd-LAS_3Zy4IJIIum8C7-31" value="&lt;div&gt;&amp;lt;&amp;lt;Entity&amp;gt;&amp;gt;&lt;/div&gt;User" style="swimlane;fontStyle=1;align=center;verticalAlign=top;childLayout=stackLayout;horizontal=1;startSize=36;horizontalStack=0;resizeParent=1;resizeParentMax=0;resizeLast=0;collapsible=1;marginBottom=0;whiteSpace=wrap;html=1;" vertex="1" parent="1">
          <mxGeometry x="29.99764705882336" y="40" width="180" height="200" as="geometry">
            <mxRectangle x="300" y="-690" width="80" height="30" as="alternateBounds" />
          </mxGeometry>
        </mxCell>
        <mxCell id="Qd-LAS_3Zy4IJIIum8C7-32" value="+ UserID: int PK" style="text;align=left;verticalAlign=top;spacingLeft=4;spacingRight=4;overflow=hidden;rotatable=0;points=[[0,0.5],[1,0.5]];portConstraint=eastwest;whiteSpace=wrap;html=1;" vertex="1" parent="Qd-LAS_3Zy4IJIIum8C7-31">
          <mxGeometry y="36" width="180" height="26" as="geometry" />
        </mxCell>
        <mxCell id="Qd-LAS_3Zy4IJIIum8C7-33" value="" style="line;strokeWidth=1;align=left;verticalAlign=middle;spacingTop=-1;spacingLeft=3;spacingRight=3;rotatable=0;labelPosition=right;points=[];portConstraint=eastwest;" vertex="1" parent="Qd-LAS_3Zy4IJIIum8C7-31">
          <mxGeometry y="62" width="180" height="8" as="geometry" />
        </mxCell>
        <mxCell id="Qd-LAS_3Zy4IJIIum8C7-34" value="+ Email: string" style="text;align=left;verticalAlign=top;spacingLeft=4;spacingRight=4;overflow=hidden;rotatable=0;points=[[0,0.5],[1,0.5]];portConstraint=eastwest;whiteSpace=wrap;html=1;" vertex="1" parent="Qd-LAS_3Zy4IJIIum8C7-31">
          <mxGeometry y="70" width="180" height="26" as="geometry" />
        </mxCell>
        <mxCell id="Qd-LAS_3Zy4IJIIum8C7-35" value="+ UserName: string" style="text;align=left;verticalAlign=top;spacingLeft=4;spacingRight=4;overflow=hidden;rotatable=0;points=[[0,0.5],[1,0.5]];portConstraint=eastwest;whiteSpace=wrap;html=1;" vertex="1" parent="Qd-LAS_3Zy4IJIIum8C7-31">
          <mxGeometry y="96" width="180" height="26" as="geometry" />
        </mxCell>
        <mxCell id="Qd-LAS_3Zy4IJIIum8C7-69" value="+ Password: string" style="text;align=left;verticalAlign=top;spacingLeft=4;spacingRight=4;overflow=hidden;rotatable=0;points=[[0,0.5],[1,0.5]];portConstraint=eastwest;whiteSpace=wrap;html=1;" vertex="1" parent="Qd-LAS_3Zy4IJIIum8C7-31">
          <mxGeometry y="122" width="180" height="26" as="geometry" />
        </mxCell>
        <mxCell id="Qd-LAS_3Zy4IJIIum8C7-70" value="+ Role: string" style="text;align=left;verticalAlign=top;spacingLeft=4;spacingRight=4;overflow=hidden;rotatable=0;points=[[0,0.5],[1,0.5]];portConstraint=eastwest;whiteSpace=wrap;html=1;" vertex="1" parent="Qd-LAS_3Zy4IJIIum8C7-31">
          <mxGeometry y="148" width="180" height="26" as="geometry" />
        </mxCell>
        <mxCell id="Qd-LAS_3Zy4IJIIum8C7-71" value="+ Profile: string" style="text;align=left;verticalAlign=top;spacingLeft=4;spacingRight=4;overflow=hidden;rotatable=0;points=[[0,0.5],[1,0.5]];portConstraint=eastwest;whiteSpace=wrap;html=1;" vertex="1" parent="Qd-LAS_3Zy4IJIIum8C7-31">
          <mxGeometry y="174" width="180" height="26" as="geometry" />
        </mxCell>
        <mxCell id="Qd-LAS_3Zy4IJIIum8C7-72" value="&lt;div&gt;&amp;lt;&amp;lt;Entity&amp;gt;&amp;gt;&lt;/div&gt;BuySheets" style="swimlane;fontStyle=1;align=center;verticalAlign=top;childLayout=stackLayout;horizontal=1;startSize=40;horizontalStack=0;resizeParent=1;resizeParentMax=0;resizeLast=0;collapsible=1;marginBottom=0;whiteSpace=wrap;html=1;" vertex="1" parent="1">
          <mxGeometry x="340" y="40" width="185" height="204" as="geometry" />
        </mxCell>
        <mxCell id="Qd-LAS_3Zy4IJIIum8C7-73" value="+ SheetID: int PK" style="text;strokeColor=none;fillColor=none;align=left;verticalAlign=top;spacingLeft=4;spacingRight=4;overflow=hidden;rotatable=0;points=[[0,0.5],[1,0.5]];portConstraint=eastwest;whiteSpace=wrap;html=1;" vertex="1" parent="Qd-LAS_3Zy4IJIIum8C7-72">
          <mxGeometry y="40" width="185" height="26" as="geometry" />
        </mxCell>
        <mxCell id="Qd-LAS_3Zy4IJIIum8C7-74" value="" style="line;strokeWidth=1;fillColor=none;align=left;verticalAlign=middle;spacingTop=-1;spacingLeft=3;spacingRight=3;rotatable=0;labelPosition=right;points=[];portConstraint=eastwest;strokeColor=inherit;" vertex="1" parent="Qd-LAS_3Zy4IJIIum8C7-72">
          <mxGeometry y="66" width="185" height="8" as="geometry" />
        </mxCell>
        <mxCell id="Qd-LAS_3Zy4IJIIum8C7-85" value="+ HistoryBuy: date" style="text;align=left;verticalAlign=top;spacingLeft=4;spacingRight=4;overflow=hidden;rotatable=0;points=[[0,0.5],[1,0.5]];portConstraint=eastwest;whiteSpace=wrap;html=1;" vertex="1" parent="Qd-LAS_3Zy4IJIIum8C7-72">
          <mxGeometry y="74" width="185" height="26" as="geometry" />
        </mxCell>
        <mxCell id="Qd-LAS_3Zy4IJIIum8C7-86" value="+ Evidence: string" style="text;align=left;verticalAlign=top;spacingLeft=4;spacingRight=4;overflow=hidden;rotatable=0;points=[[0,0.5],[1,0.5]];portConstraint=eastwest;whiteSpace=wrap;html=1;" vertex="1" parent="Qd-LAS_3Zy4IJIIum8C7-72">
          <mxGeometry y="100" width="185" height="26" as="geometry" />
        </mxCell>
        <mxCell id="Qd-LAS_3Zy4IJIIum8C7-87" value="+ StatusBuy: boolean" style="text;align=left;verticalAlign=top;spacingLeft=4;spacingRight=4;overflow=hidden;rotatable=0;points=[[0,0.5],[1,0.5]];portConstraint=eastwest;whiteSpace=wrap;html=1;" vertex="1" parent="Qd-LAS_3Zy4IJIIum8C7-72">
          <mxGeometry y="126" width="185" height="26" as="geometry" />
        </mxCell>
        <mxCell id="Qd-LAS_3Zy4IJIIum8C7-17" value="+ SheetID: int FK" style="text;align=left;verticalAlign=top;spacingLeft=4;spacingRight=4;overflow=hidden;rotatable=0;points=[[0,0.5],[1,0.5]];portConstraint=eastwest;whiteSpace=wrap;html=1;fillColor=#f8cecc;strokeColor=#b85450;" vertex="1" parent="Qd-LAS_3Zy4IJIIum8C7-72">
          <mxGeometry y="152" width="185" height="26" as="geometry" />
        </mxCell>
        <mxCell id="Qd-LAS_3Zy4IJIIum8C7-81" value="+ UserID: int FK" style="text;align=left;verticalAlign=top;spacingLeft=4;spacingRight=4;overflow=hidden;rotatable=0;points=[[0,0.5],[1,0.5]];portConstraint=eastwest;whiteSpace=wrap;html=1;fillColor=#f8cecc;strokeColor=#b85450;" vertex="1" parent="Qd-LAS_3Zy4IJIIum8C7-72">
          <mxGeometry y="178" width="185" height="26" as="geometry" />
        </mxCell>
      </root>
    </mxGraphModel>
  </diagram>
</mxfile>
